<svg width="1114" height="702" viewBox="0 0 1114 702" fill="none" xmlns="http://www.w3.org/2000/svg">
<path d="M766.5 231L762 232V257L791 291.5L831.5 280.5V274.5L878.5 262V246.5L888.5 244L878.5 224L869 227.5L866 221L844 210.5L834.5 213L831.5 208.5H819L807.5 217.5L797 221H783L766.5 231Z" fill="#289502" fill-opacity="0.57"/>
<path d="M395.5 311.5L348 325L355 340L352.5 354.5L360.5 382L366.5 403.5L513 366.5L507 331.5L487 288L442.5 298.5L417 295L395.5 311.5Z" fill="#289502" fill-opacity="0.57"/>
<path d="M504 273.5L488.5 287.5L509 332.5L514 364.5L554.5 353.5L551.5 321L532.5 277L504 273.5Z" fill="#289502" fill-opacity="0.57"/>
<path d="M552.5 320L535.5 279.5L570.5 269.5L589.5 253L612.5 257.5L648.5 248.5L668.5 233L691 236.5L737.5 229L764.5 272.5L760 275V299.5L556.5 353.5L552.5 320Z" fill="#289502" fill-opacity="0.57"/>
<path d="M540.5 402.5L518.5 420L523.5 430V446L540.5 479L557.5 472.5L575 500.5L626.5 485L625 455L593 395.5L565 404L540.5 402.5Z" fill="#289502" fill-opacity="0.57"/>
<path d="M607.5 395.5H595L626.5 455L628 480L664.5 469L667.5 473L694.5 464V424.5L667.5 377.5L658 379L634 377.5L607.5 395.5Z" fill="#0089F8" fill-opacity="0.54"/>
<path d="M683 369.5L670 378.5L695 425L696.5 463.5L718.5 456.5V452L756.5 441.5L758 445.5L786 437V399L755 353L746.5 356L724.5 353L704.5 369.5L695 371L683 369.5Z" fill="#FF6600" fill-opacity="0.52"/>
<path d="M791.5 342.5L755 353L786.5 396.5V436L806.5 430V425L842 415L847 419L874 409.5V372L842 328.5L831 331.5L810 328.5L791.5 342.5Z" fill="#289502" fill-opacity="0.57"/>
<path d="M874.5 371.5L843 328L913.5 302L941 342V369L913.5 376L888.5 348L899.5 376L896.5 405L874.5 410V371.5Z" fill="#F8D800" fill-opacity="0.57"/>
<path d="M930.5 298L914.5 303L942.5 342.5V369L958 367V359L978 354L979.5 325L952.5 287.5H933L925 294L930.5 298Z" fill="#289502" fill-opacity="0.57"/>
<path d="M960 285.5L953.5 288L979.5 325.5V353L994 349V343.5L1029.5 333.5V329.5L1043 327L1044.5 313.5L1049 310.5L1044.5 295.5L1032 285.5H1021.5L1008.5 271.5L1005 273.5H994L992.5 271.5H978.5L963.5 276.5L960 285.5Z" fill="#FF6600" fill-opacity="0.52"/>
</svg>
